<?xml version="1.0" encoding="utf-8"?>
<!-- Generator: Adobe Illustrator 24.0.0, SVG Export Plug-In . SVG Version: 6.00 Build 0)  -->
<svg version="1.1" id="Layer_1" xmlns="http://www.w3.org/2000/svg" xmlns:xlink="http://www.w3.org/1999/xlink" x="0px" y="0px"
	 viewBox="0 0 20 20" style="enable-background:new 0 0 20 20;" xml:space="preserve">
<style type="text/css">
	.st0{fill:#FFFFFF;}
</style>
<path class="st0" d="M10,1.2c-4.9,0-8.8,3.9-8.8,8.8s3.9,8.8,8.8,8.8s8.8-3.9,8.8-8.8S14.9,1.2,10,1.2z M8,9.4
	c-0.4-0.8-0.2-2,0.4-2.6c0.4-0.4,0.9-0.5,1.4-0.3c0.3,0.1,0.5,0.4,0.5,0.7c0,0.4-0.1,0.8-0.2,1.2C10,9,9.8,9.6,9.7,10.2
	c0,0.2,0,0.4,0,0.7c0.1,0.5,0.4,0.6,0.9,0.7c0.7,0.1,1.3-0.1,1.7-0.7c0.5-0.6,0.8-1.4,0.9-2.2c0.1-0.6,0.1-1.2-0.1-1.9
	c-0.3-1.1-1-1.7-2-2c-1.4-0.3-2.6,0.1-3.6,1C6.7,6.6,6.4,7.5,6.4,8.5c0,0.4,0.1,0.7,0.4,1.1c0.2,0.3,0.3,0.6,0.2,1
	c-0.2,0.5-0.1,0.5-0.6,0.3c-0.7-0.3-1.1-0.8-1.3-1.6c-0.2-0.7-0.2-1.5,0-2.2c0.3-1.1,1-2,1.9-2.6c1-0.7,2.2-0.9,3.4-0.9
	c0.8,0.1,1.7,0.2,2.4,0.7c1.2,0.7,1.9,1.7,2,3c0.1,1,0,2-0.3,2.9c-0.4,1-1,1.9-2,2.4c-0.8,0.4-1.6,0.5-2.4,0.2
	c-0.3-0.1-0.5-0.3-0.8-0.5c-0.1,0-0.2-0.1-0.2-0.1c-0.2,0.8-0.4,1.6-0.7,2.4c-0.2,0.7-0.6,1.2-1.1,1.7c-0.1,0.1-0.2,0.1-0.3,0.2
	c0-0.2,0-0.3-0.1-0.4c-0.1-1.3,0.1-2.5,0.4-3.8c0.2-0.8,0.4-1.6,0.6-2.4C8.1,9.7,8.1,9.6,8,9.4z"/>
</svg>
